<svg width="17" height="17" viewBox="0 0 17 17" fill="none" xmlns="http://www.w3.org/2000/svg">
<path d="M8.5 7.79167V11.3333M8.5 14.875C7.66282 14.875 6.83384 14.7101 6.06039 14.3897C5.28694 14.0694 4.58417 13.5998 3.99219 13.0078C3.40022 12.4158 2.93064 11.7131 2.61027 10.9396C2.28989 10.1662 2.125 9.33718 2.125 8.5C2.125 7.66282 2.28989 6.83384 2.61027 6.06039C2.93064 5.28694 3.40022 4.58417 3.99219 3.99219C4.58417 3.40022 5.28694 2.93064 6.06039 2.61027C6.83384 2.28989 7.66282 2.125 8.5 2.125C10.1908 2.125 11.8123 2.79665 13.0078 3.99219C14.2033 5.18774 14.875 6.80924 14.875 8.5C14.875 10.1908 14.2033 11.8123 13.0078 13.0078C11.8123 14.2033 10.1908 14.875 8.5 14.875ZM8.53542 5.66667V5.7375H8.46458V5.66667H8.53542Z" stroke="#7D87A0" stroke-width="1.5" stroke-linecap="round" stroke-linejoin="round"/>
</svg>
